<svg xmlns="http://www.w3.org/2000/svg" width="1600" height="1000" viewBox="0 0 1600 1000">
  <defs>
    <linearGradient id="bg" x1="0" y1="0" x2="1" y2="1">
      <stop offset="0" stop-color="#0B1220"/>
      <stop offset="1" stop-color="#0F172A"/>
    </linearGradient>
    <radialGradient id="glowA" cx="26%" cy="14%" r="64%">
      <stop offset="0" stop-color="#38BDF8" stop-opacity=".22"/>
      <stop offset="1" stop-color="#38BDF8" stop-opacity="0"/>
    </radialGradient>
    <radialGradient id="glowB" cx="86%" cy="44%" r="60%">
      <stop offset="0" stop-color="#38BDF8" stop-opacity=".14"/>
      <stop offset="1" stop-color="#38BDF8" stop-opacity="0"/>
    </radialGradient>
    <linearGradient id="bezel" x1="0" y1="0" x2="0" y2="1">
      <stop offset="0" stop-color="#111827"/>
      <stop offset="1" stop-color="#070B13"/>
    </linearGradient>
    <linearGradient id="accent" x1="0" y1="0" x2="1" y2="0">
      <stop offset="0" stop-color="#38BDF8" stop-opacity=".98"/>
      <stop offset="1" stop-color="#38BDF8" stop-opacity=".16"/>
    </linearGradient>
    <linearGradient id="panel" x1="0" y1="0" x2="1" y2="1">
      <stop offset="0" stop-color="#0F172A"/>
      <stop offset="1" stop-color="#0B1220"/>
    </linearGradient>

    <filter id="shadow" x="-30%" y="-30%" width="160%" height="160%">
      <feDropShadow dx="0" dy="22" stdDeviation="22" flood-color="#000" flood-opacity=".58"/>
    </filter>
    <filter id="soft" x="-30%" y="-30%" width="160%" height="160%">
      <feGaussianBlur stdDeviation="26"/>
    </filter>
    <filter id="grain" x="-10%" y="-10%" width="120%" height="120%">
      <feTurbulence type="fractalNoise" baseFrequency=".8" numOctaves="2" stitchTiles="stitch"/>
      <feColorMatrix type="matrix" values="1 0 0 0 0  0 1 0 0 0  0 0 1 0 0  0 0 0 .12 0"/>
    </filter>

    <clipPath id="deskClip">
      <rect x="260" y="180" width="1080" height="580" rx="24"/>
    </clipPath>
    <clipPath id="lapClip">
      <rect x="553" y="560" width="494" height="260" rx="18"/>
    </clipPath>

    <style>
      .tH { font-family: Inter, system-ui, -apple-system, Segoe UI, Arial, sans-serif; font-weight: 760; letter-spacing: -0.02em; }
      .tB { font-family: Inter, system-ui, -apple-system, Segoe UI, Arial, sans-serif; font-weight: 520; }
      .mut { fill: #9CA3AF; }
      .pri { fill: #E5E7EB; }
      .acc { fill: #38BDF8; }
    </style>
  </defs>

  <rect width="1600" height="1000" fill="url(#bg)"/>
  <rect width="1600" height="1000" fill="url(#glowA)"/>
  <rect width="1600" height="1000" fill="url(#glowB)"/>
  <circle cx="1260" cy="350" r="300" fill="#38BDF8" opacity=".10" filter="url(#soft)"/>

  <!-- Desktop monitor -->
  <g filter="url(#shadow)">
    <rect x="220" y="140" width="1160" height="660" rx="34" fill="url(#bezel)" stroke="#FFFFFF" stroke-opacity=".10"/>
    <rect x="260" y="180" width="1080" height="580" rx="24" fill="#0B1220" stroke="#FFFFFF" stroke-opacity=".08"/>

    <!-- Screen content (SaaS landing page) -->
    <g clip-path="url(#deskClip)">
      <rect x="260" y="180" width="1080" height="580" fill="#0B1220"/>

      <!-- Nav -->
      <rect x="290" y="206" width="1020" height="54" rx="18" fill="#0F172A" stroke="#FFFFFF" stroke-opacity=".09"/>
      <circle cx="324" cy="233" r="10" fill="#38BDF8" opacity=".92"/>
      <text x="346" y="239" class="tH pri" font-size="14">Bluecrest</text>
      <text x="560" y="239" class="tB mut" font-size="12">Features</text>
      <text x="650" y="239" class="tB mut" font-size="12">Pricing</text>
      <text x="720" y="239" class="tB mut" font-size="12">Security</text>
      <text x="800" y="239" class="tB mut" font-size="12">Docs</text>
      <rect x="1080" y="219" width="100" height="28" rx="14" fill="#0B1220" stroke="#38BDF8" stroke-opacity=".22"/>
      <text x="1102" y="238" class="tB acc" font-size="12">Sign in</text>
      <rect x="1190" y="219" width="120" height="28" rx="14" fill="url(#accent)"/>
      <text x="1210" y="238" class="tB" font-size="12" fill="#07111F">Get started</text>

      <!-- Hero -->
      <text x="300" y="320" class="tH pri" font-size="42">Build a premium landing</text>
      <text x="300" y="366" class="tH" font-size="42" fill="#38BDF8">that converts</text>
      <text x="300" y="405" class="tB mut" font-size="14">Fast, minimal, and designed for clarity—perfect for product launches.</text>

      <rect x="300" y="435" width="170" height="44" rx="18" fill="#38BDF8"/>
      <text x="326" y="463" class="tB" font-size="13" fill="#07111F">Start free trial</text>
      <rect x="480" y="435" width="160" height="44" rx="18" fill="#0F172A" stroke="#FFFFFF" stroke-opacity=".12"/>
      <text x="508" y="463" class="tB pri" font-size="13">View pricing</text>

      <!-- Product preview (right) -->
      <rect x="915" y="286" width="395" height="270" rx="26" fill="#0F172A" stroke="#FFFFFF" stroke-opacity=".10"/>
      <text x="940" y="320" class="tB pri" font-size="12">Performance dashboard</text>
      <text x="940" y="342" class="tB mut" font-size="11">Real-time metrics</text>

      <rect x="940" y="366" width="345" height="168" rx="20" fill="#0B1220" stroke="#38BDF8" stroke-opacity=".18"/>
      <text x="962" y="394" class="tB pri" font-size="11">Conversion rate</text>
      <text x="1220" y="394" class="tB acc" font-size="11">4.8%</text>
      <!-- bar chart -->
      <g opacity=".95">
        <rect x="964" y="436" width="18" height="70" rx="6" fill="#38BDF8" opacity=".35"/>
        <rect x="992" y="454" width="18" height="52" rx="6" fill="#38BDF8" opacity=".35"/>
        <rect x="1020" y="420" width="18" height="86" rx="6" fill="#38BDF8" opacity=".70"/>
        <rect x="1048" y="444" width="18" height="62" rx="6" fill="#38BDF8" opacity=".35"/>
        <rect x="1076" y="410" width="18" height="96" rx="6" fill="#38BDF8" opacity=".70"/>
        <rect x="1104" y="462" width="18" height="44" rx="6" fill="#38BDF8" opacity=".35"/>
        <rect x="1132" y="430" width="18" height="76" rx="6" fill="#38BDF8" opacity=".70"/>
        <rect x="1160" y="452" width="18" height="54" rx="6" fill="#38BDF8" opacity=".35"/>
        <rect x="1188" y="416" width="18" height="90" rx="6" fill="#38BDF8" opacity=".70"/>
      </g>
      <text x="962" y="520" class="tB mut" font-size="10">Weekly trend</text>

      <!-- Social proof row -->
      <rect x="300" y="510" width="600" height="64" rx="24" fill="#0F172A" stroke="#FFFFFF" stroke-opacity=".10"/>
      <text x="325" y="538" class="tB pri" font-size="12">Trusted by teams shipping modern products</text>
      <text x="325" y="558" class="tB mut" font-size="11">Secure checkout • Mobile-first • Fast load times</text>
      <g>
        <circle cx="820" cy="542" r="14" fill="#0B1220" stroke="#38BDF8" stroke-opacity=".20"/>
        <path d="M814 542h12" stroke="#38BDF8" stroke-width="2" stroke-linecap="round"/>
        <circle cx="860" cy="542" r="14" fill="#0B1220" stroke="#FFFFFF" stroke-opacity=".10"/>
        <path d="M854 542h12" stroke="#E5E7EB" stroke-opacity=".45" stroke-width="2" stroke-linecap="round"/>
        <circle cx="900" cy="542" r="14" fill="#0B1220" stroke="#FFFFFF" stroke-opacity=".10"/>
        <circle cx="900" cy="542" r="6" fill="#38BDF8" opacity=".45"/>
      </g>

      <!-- Pricing cards -->
      <rect x="300" y="592" width="320" height="150" rx="26" fill="#0F172A" stroke="#FFFFFF" stroke-opacity=".10"/>
      <text x="325" y="628" class="tH pri" font-size="14">Starter</text>
      <text x="325" y="652" class="tB mut" font-size="11">For early-stage launches</text>
      <text x="325" y="692" class="tH" font-size="26" fill="#38BDF8">₹9,999</text>
      <rect x="325" y="706" width="140" height="30" rx="15" fill="url(#accent)"/>
      <text x="345" y="726" class="tB" font-size="11" fill="#07111F">Choose plan</text>

      <rect x="640" y="592" width="320" height="150" rx="26" fill="#0F172A" stroke="#38BDF8" stroke-opacity=".24"/>
      <text x="665" y="628" class="tH pri" font-size="14">Professional</text>
      <text x="665" y="652" class="tB mut" font-size="11">Best for growth teams</text>
      <text x="665" y="692" class="tH" font-size="26" fill="#38BDF8">₹24,999</text>
      <rect x="665" y="706" width="140" height="30" rx="15" fill="#38BDF8"/>
      <text x="685" y="726" class="tB" font-size="11" fill="#07111F">Choose plan</text>

      <rect x="980" y="592" width="330" height="150" rx="26" fill="#0F172A" stroke="#FFFFFF" stroke-opacity=".10"/>
      <text x="1005" y="628" class="tH pri" font-size="14">Enterprise</text>
      <text x="1005" y="652" class="tB mut" font-size="11">Security & support</text>
      <text x="1005" y="692" class="tH" font-size="26" fill="#38BDF8">Custom</text>
      <rect x="1005" y="706" width="160" height="30" rx="15" fill="#0B1220" stroke="#38BDF8" stroke-opacity=".22"/>
      <text x="1025" y="726" class="tB acc" font-size="11">Talk to sales</text>

      <!-- Grain + reflection -->
      <rect x="260" y="180" width="1080" height="580" filter="url(#grain)" opacity=".30"/>
      <path d="M260 180 L1340 180 L1340 760" fill="none" stroke="#38BDF8" stroke-opacity=".06" stroke-width="80"/>
    </g>

    <!-- Stand -->
    <path d="M720 800h160c10 0 18 8 18 18v34H702v-34c0-10 8-18 18-18z" fill="#111827" stroke="#FFFFFF" stroke-opacity=".10"/>
    <path d="M620 852h360c12 0 22 10 22 22v28H598v-28c0-12 10-22 22-22z" fill="#070B13" stroke="#FFFFFF" stroke-opacity=".08"/>
  </g>

  <!-- Laptop overlay -->
  <g filter="url(#shadow)">
    <rect x="525" y="532" width="550" height="336" rx="26" fill="url(#bezel)" stroke="#FFFFFF" stroke-opacity=".10"/>
    <rect x="553" y="560" width="494" height="260" rx="18" fill="#0B1220" stroke="#FFFFFF" stroke-opacity=".08"/>

    <g clip-path="url(#lapClip)">
      <rect x="553" y="560" width="494" height="260" fill="#0B1220"/>
      <rect x="575" y="578" width="450" height="34" rx="14" fill="#0F172A" stroke="#FFFFFF" stroke-opacity=".09"/>
      <text x="593" y="601" class="tH pri" font-size="12">Bluecrest</text>
      <text x="666" y="601" class="tB mut" font-size="11">Pricing</text>
      <rect x="926" y="586" width="86" height="18" rx="9" fill="url(#accent)"/>
      <text x="940" y="599" class="tB" font-size="10.5" fill="#07111F">Start</text>

      <text x="575" y="664" class="tH pri" font-size="24">Mobile-first landing</text>
      <text x="575" y="688" class="tB mut" font-size="12">Clean sections and repeated CTA for intent.</text>

      <rect x="575" y="710" width="170" height="36" rx="18" fill="#38BDF8"/>
      <text x="600" y="734" class="tB" font-size="12" fill="#07111F">Get started</text>

      <rect x="760" y="710" width="265" height="96" rx="20" fill="#0F172A" stroke="#38BDF8" stroke-opacity=".18"/>
      <text x="780" y="738" class="tB pri" font-size="11">Sections</text>
      <text x="780" y="760" class="tB mut" font-size="10.5">Hero • Proof • Benefits • Pricing</text>
      <text x="780" y="780" class="tB mut" font-size="10.5">Fast load + clear hierarchy</text>

      <rect x="553" y="560" width="494" height="260" filter="url(#grain)" opacity=".26"/>
    </g>

    <path d="M505 868h590c22 0 40 18 40 40v14H465v-14c0-22 18-40 40-40z" fill="#070B13" stroke="#FFFFFF" stroke-opacity=".10"/>
    <rect x="720" y="896" width="170" height="10" rx="5" fill="#E5E7EB" opacity=".08"/>
  </g>
</svg>
